<svg width="23" height="15" viewBox="0 0 23 15" fill="none" xmlns="http://www.w3.org/2000/svg">
<path d="M0.0800001 12V0.824999H4.235C4.995 0.824999 5.665 0.964999 6.245 1.245C6.835 1.515 7.295 1.915 7.625 2.445C7.955 2.965 8.12 3.6 8.12 4.35C8.12 5.12 7.935 5.775 7.565 6.315C7.205 6.855 6.715 7.255 6.095 7.515L8.66 12H6.35L3.605 7.095L4.925 7.875H2.12V12H0.0800001ZM2.12 6.075H4.265C4.635 6.075 4.955 6.005 5.225 5.865C5.495 5.715 5.705 5.51 5.855 5.25C6.005 4.99 6.08 4.69 6.08 4.35C6.08 4 6.005 3.7 5.855 3.45C5.705 3.19 5.495 2.99 5.225 2.85C4.955 2.7 4.635 2.625 4.265 2.625H2.12V6.075ZM9.83199 15V3.84H11.677V5.46L11.497 5.055C11.777 4.615 12.157 4.275 12.637 4.035C13.117 3.785 13.672 3.66 14.302 3.66C15.072 3.66 15.767 3.85 16.387 4.23C17.007 4.61 17.497 5.12 17.857 5.76C18.227 6.4 18.412 7.12 18.412 7.92C18.412 8.71 18.232 9.43 17.872 10.08C17.512 10.73 17.022 11.245 16.402 11.625C15.782 11.995 15.077 12.18 14.287 12.18C13.697 12.18 13.152 12.065 12.652 11.835C12.162 11.595 11.772 11.255 11.482 10.815L11.797 10.425V15H9.83199ZM14.062 10.38C14.512 10.38 14.912 10.275 15.262 10.065C15.612 9.855 15.882 9.565 16.072 9.195C16.272 8.825 16.372 8.4 16.372 7.92C16.372 7.44 16.272 7.02 16.072 6.66C15.882 6.29 15.612 6 15.262 5.79C14.912 5.57 14.512 5.46 14.062 5.46C13.632 5.46 13.242 5.565 12.892 5.775C12.552 5.985 12.282 6.28 12.082 6.66C11.892 7.03 11.797 7.45 11.797 7.92C11.797 8.4 11.892 8.825 12.082 9.195C12.282 9.565 12.552 9.855 12.892 10.065C13.242 10.275 13.632 10.38 14.062 10.38ZM20.8401 12V9.9H22.8201V12H20.8401Z" fill="#096207"/>
</svg>
