<svg width="28" height="28" viewBox="0 0 28 28" fill="none" xmlns="http://www.w3.org/2000/svg">
<g clip-path="url(#clip0_609_2910)">
<path fill-rule="evenodd" clip-rule="evenodd" d="M3.3335 0C2.78121 0 2.3335 0.447715 2.3335 1V27C2.3335 27.5523 2.78121 28 3.3335 28H24.6668C25.2191 28 25.6668 27.5523 25.6668 27V4.66667L21.0002 0H3.3335Z" fill="#E9F0FA"/>
<path fill-rule="evenodd" clip-rule="evenodd" d="M21.0002 0V4.66667H25.6669L21.0002 0Z" fill="#C2CDDE"/>
</g>
<rect x="1.16675" y="11.6667" width="25.6667" height="11.6667" rx="1" fill="#F14848"/>
<path d="M6.43714 20.5V14.6818H10.1644V15.5653H7.49112V17.1449H9.90874V18.0284H7.49112V20.5H6.43714ZM12.1786 14.6818V20.5H11.1246V14.6818H12.1786ZM13.32 20.5V14.6818H14.3739V19.6165H16.9364V20.5H13.32ZM17.8512 20.5V14.6818H21.6353V15.5653H18.9052V17.1449H21.4393V18.0284H18.9052V19.6165H21.658V20.5H17.8512Z" fill="white"/>
<defs>
<clipPath id="clip0_609_2910">
<rect width="23.3333" height="28" fill="white" transform="translate(2.3335)"/>
</clipPath>
</defs>
</svg>
