<svg width="24" height="24" viewBox="0 0 24 24" fill="none" xmlns="http://www.w3.org/2000/svg">
<g clip-path="url(#clip0_41_296)">
<path d="M12.531 1.18395L13.779 3.64195H15.906C16.0231 3.6391 16.1383 3.67163 16.2366 3.73531C16.3349 3.79899 16.4117 3.89084 16.457 3.99887C16.5023 4.10689 16.5139 4.22607 16.4903 4.3408C16.4668 4.45553 16.4092 4.56049 16.325 4.64196L14.372 6.55995L15.454 9.04496C15.5017 9.15877 15.5125 9.28468 15.4847 9.40493C15.457 9.52518 15.3922 9.63368 15.2995 9.71512C15.2068 9.79656 15.0908 9.84682 14.968 9.85881C14.8452 9.87081 14.7217 9.84392 14.615 9.78195L12 8.31095L9.38501 9.78195C9.2783 9.84392 9.15482 9.87081 9.032 9.85881C8.90918 9.84682 8.79324 9.79656 8.70053 9.71512C8.60781 9.63368 8.54302 9.52518 8.5153 9.40493C8.48758 9.28468 8.49832 9.15877 8.54601 9.04496L9.62801 6.55995L7.67501 4.63795C7.59086 4.55649 7.53324 4.45153 7.50969 4.3368C7.48614 4.22206 7.49776 4.10289 7.54302 3.99487C7.58828 3.88684 7.66509 3.79499 7.76339 3.73131C7.86169 3.66763 7.97692 3.6351 8.09401 3.63795H10.221L11.47 1.18395C11.521 1.08746 11.5973 1.00669 11.6908 0.95036C11.7843 0.894027 11.8914 0.864258 12.0005 0.864258C12.1097 0.864258 12.2167 0.894027 12.3102 0.95036C12.4037 1.00669 12.48 1.08746 12.531 1.18395Z" stroke="#222222" stroke-width="2" stroke-linecap="round" stroke-linejoin="round"/>
<path d="M5.25001 2.35792C5.14002 2.35725 5.03205 2.38744 4.93836 2.44507C4.84467 2.5027 4.76902 2.58545 4.72001 2.68392L3.47101 5.14192H1.34401C1.22692 5.13906 1.11169 5.1716 1.01339 5.23527C0.915085 5.29895 0.838281 5.39081 0.793018 5.49883C0.747755 5.60686 0.736139 5.72603 0.759688 5.84077C0.783238 5.9555 0.840857 6.06046 0.925013 6.14192L2.87801 8.05992L1.80001 10.5449C1.75232 10.6587 1.74158 10.7846 1.7693 10.9049C1.79702 11.0251 1.86181 11.1336 1.95452 11.2151C2.04724 11.2965 2.16318 11.3468 2.286 11.3588C2.40882 11.3708 2.5323 11.3439 2.63901 11.2819L5.25001 9.81092L5.94201 10.1999" stroke="#222222" stroke-width="2" stroke-linecap="round" stroke-linejoin="round"/>
<path d="M18.75 2.35792C18.86 2.35725 18.9679 2.38744 19.0616 2.44507C19.1553 2.5027 19.231 2.58545 19.28 2.68392L20.529 5.14192H22.656C22.7731 5.13906 22.8883 5.1716 22.9866 5.23527C23.0849 5.29895 23.1617 5.39081 23.207 5.49883C23.2522 5.60686 23.2639 5.72603 23.2403 5.84077C23.2168 5.9555 23.1591 6.06046 23.075 6.14192L21.122 8.05992L22.2 10.5449C22.2477 10.6587 22.2584 10.7846 22.2307 10.9049C22.203 11.0251 22.1382 11.1336 22.0455 11.2151C21.9528 11.2965 21.8368 11.3468 21.714 11.3588C21.5912 11.3708 21.4677 11.3439 21.361 11.2819L18.75 9.81092L18.058 10.1999" stroke="#222222" stroke-width="2" stroke-linecap="round" stroke-linejoin="round"/>
<path d="M0.75 13.7671V16.7671C0.75 16.7671 3.75 13.7671 12 13.7671C20.25 13.7671 23.25 16.7671 23.25 16.7671V13.7671" stroke="#222222" stroke-width="2" stroke-linecap="round" stroke-linejoin="round"/>
<path d="M2.64 18.5389C2.20916 19.2707 1.54288 19.8348 0.75 20.1389H2.25C2.64782 20.1389 3.02936 20.2969 3.31066 20.5782C3.59196 20.8596 3.75 21.2411 3.75 21.6389V23.1389C3.75 23.1389 7.79 22.4549 8.208 16.6289" stroke="#222222" stroke-width="2" stroke-linecap="round" stroke-linejoin="round"/>
<path d="M21.36 18.5389C21.7908 19.2707 22.4571 19.8348 23.25 20.1389H21.75C21.3522 20.1389 20.9706 20.2969 20.6893 20.5782C20.408 20.8596 20.25 21.2411 20.25 21.6389V23.1389C20.25 23.1389 16.21 22.4549 15.792 16.6289" stroke="#222222" stroke-width="2" stroke-linecap="round" stroke-linejoin="round"/>
</g>
<defs>
<clipPath id="clip0_41_296">
<rect width="24" height="24" fill="white"/>
</clipPath>
</defs>
</svg>
