<svg width="24" height="24" viewBox="0 0 24 24" fill="none" xmlns="http://www.w3.org/2000/svg">
<path d="M17.9997 7.99967C17.9997 6.40839 17.3676 4.88228 16.2424 3.75707C15.1172 2.63186 13.591 1.99973 11.9998 1.99973C10.4085 1.99973 8.88237 2.63186 7.75716 3.75707C6.63195 4.88228 5.99982 6.40839 5.99982 7.99967C5.99982 14.9996 2.99985 16.9996 2.99985 16.9996H20.9997C20.9997 16.9996 17.9997 14.9996 17.9997 7.99967Z" stroke="#3D3D3D" stroke-width="1.66678" stroke-linecap="round" stroke-linejoin="round"/>
<path d="M13.7298 20.9994C13.5539 21.3025 13.3016 21.5541 12.9979 21.729C12.6943 21.9039 12.35 21.996 11.9996 21.996C11.6492 21.996 11.3049 21.9039 11.0012 21.729C10.6976 21.5541 10.4452 21.3025 10.2694 20.9994" stroke="#3D3D3D" stroke-width="1.66678" stroke-linecap="round" stroke-linejoin="round"/>
</svg>
