<svg width="20" height="25" viewBox="0 0 20 25" fill="none" xmlns="http://www.w3.org/2000/svg">
<path d="M14.313 11.5098L8.721 17.1018C8.645 17.1779 8.5548 17.2383 8.4554 17.2796C8.3561 17.3208 8.2495 17.342 8.142 17.342C8.0344 17.342 7.92792 17.3208 7.82857 17.2796C7.72922 17.2383 7.63897 17.1779 7.56299 17.1018L5.68799 15.2258" stroke="black" stroke-width="2" stroke-linecap="round" stroke-linejoin="round"/>
<path d="M13.75 4.75H17.5C17.8978 4.75 18.2794 4.90804 18.5607 5.18934C18.842 5.47064 19 5.85218 19 6.25V22C19 22.3978 18.842 22.7794 18.5607 23.0607C18.2794 23.342 17.8978 23.5 17.5 23.5H2.5C2.10218 23.5 1.72064 23.342 1.43934 23.0607C1.15804 22.7794 1 22.3978 1 22V6.25C1 5.85218 1.15804 5.47064 1.43934 5.18934C1.72064 4.90804 2.10218 4.75 2.5 4.75H6.25C6.25 3.75544 6.64509 2.80161 7.34835 2.09835C8.0516 1.39509 9.0054 1 10 1C10.9946 1 11.9484 1.39509 12.6517 2.09835C13.3549 2.80161 13.75 3.75544 13.75 4.75Z" stroke="black" stroke-width="2" stroke-linecap="round" stroke-linejoin="round"/>
<path d="M9.99951 4.76074C9.79241 4.76074 9.62451 4.59285 9.62451 4.38574C9.62451 4.17863 9.79241 4.01074 9.99951 4.01074" stroke="black" stroke-width="1.5"/>
<path d="M9.99951 4.76074C10.2066 4.76074 10.3745 4.59285 10.3745 4.38574C10.3745 4.17863 10.2066 4.01074 9.99951 4.01074" stroke="black" stroke-width="2"/>
</svg>
