<svg width="24" height="24" viewBox="0 0 24 24" fill="none" xmlns="http://www.w3.org/2000/svg">
<g clip-path="url(#clip0_41_291)">
<path d="M4.807 13.042L0.75 18L4.5 18.75L6 23.25L9.944 16.992" stroke="#222222" stroke-width="2" stroke-linecap="round" stroke-linejoin="round"/>
<path d="M19.193 13.042L23.25 18L19.5 18.75L18 23.25L14.056 16.992" stroke="#222222" stroke-width="2" stroke-linecap="round" stroke-linejoin="round"/>
<path d="M3.75 9C3.75 11.188 4.61919 13.2865 6.16637 14.8336C7.71354 16.3808 9.81196 17.25 12 17.25C14.188 17.25 16.2865 16.3808 17.8336 14.8336C19.3808 13.2865 20.25 11.188 20.25 9C20.25 6.81196 19.3808 4.71354 17.8336 3.16637C16.2865 1.61919 14.188 0.75 12 0.75C9.81196 0.75 7.71354 1.61919 6.16637 3.16637C4.61919 4.71354 3.75 6.81196 3.75 9Z" stroke="#222222" stroke-width="2" stroke-linecap="round" stroke-linejoin="round"/>
<path d="M12.531 4.29186L13.779 6.74987H15.906C16.0231 6.74701 16.1383 6.77954 16.2366 6.84322C16.3349 6.9069 16.4117 6.99875 16.457 7.10678C16.5023 7.21481 16.5139 7.33398 16.4903 7.44871C16.4668 7.56344 16.4092 7.6684 16.325 7.74987L14.372 9.66787L15.454 12.1529C15.5017 12.2667 15.5125 12.3926 15.4847 12.5128C15.457 12.6331 15.3922 12.7416 15.2995 12.823C15.2068 12.9045 15.0908 12.9547 14.968 12.9667C14.8452 12.9787 14.7217 12.9518 14.615 12.8899L12 11.4189L9.38501 12.8899C9.2783 12.9518 9.15482 12.9787 9.032 12.9667C8.90918 12.9547 8.79324 12.9045 8.70053 12.823C8.60781 12.7416 8.54302 12.6331 8.5153 12.5128C8.48758 12.3926 8.49832 12.2667 8.54601 12.1529L9.62801 9.66787L7.67501 7.74586C7.59086 7.6644 7.53324 7.55944 7.50969 7.44471C7.48614 7.32997 7.49776 7.2108 7.54302 7.10278C7.58828 6.99475 7.66509 6.9029 7.76339 6.83922C7.86169 6.77554 7.97692 6.74301 8.09401 6.74586H10.221L11.47 4.29186C11.521 4.19537 11.5973 4.1146 11.6908 4.05827C11.7843 4.00194 11.8914 3.97217 12.0005 3.97217C12.1097 3.97217 12.2167 4.00194 12.3102 4.05827C12.4037 4.1146 12.48 4.19537 12.531 4.29186Z" stroke="#222222" stroke-width="2" stroke-linecap="round" stroke-linejoin="round"/>
</g>
<defs>
<clipPath id="clip0_41_291">
<rect width="24" height="24" fill="white"/>
</clipPath>
</defs>
</svg>
